<svg width="77" height="27" viewBox="0 0 77 27" fill="none" xmlns="http://www.w3.org/2000/svg">
<path d="M13.7285 0.90625V26.5H8.47266V0.90625H13.7285ZM21.6035 0.90625V5.03711H0.720703V0.90625H21.6035ZM51.873 0.90625H56.3379L62.9121 19.6973L69.4863 0.90625H73.9512L64.7051 26.5H61.1191L51.873 0.90625ZM49.4648 0.90625H53.9121L54.7207 19.2227V26.5H49.4648V0.90625ZM71.9121 0.90625H76.377V26.5H71.1035V19.2227L71.9121 0.90625Z" fill="#828282"/>
<path d="M45.9316 13.1934V14.2305C45.9316 16.1875 45.6562 17.9453 45.1055 19.5039C44.5664 21.0508 43.7988 22.375 42.8027 23.4766C41.8066 24.5664 40.6289 25.4043 39.2695 25.9902C37.9102 26.5645 36.4102 26.8516 34.7695 26.8516C33.1172 26.8516 31.6055 26.5645 30.2344 25.9902C28.875 25.4043 27.6914 24.5664 26.6836 23.4766C25.6875 22.375 24.9141 21.0508 24.3633 19.5039C23.8242 17.9453 23.5547 16.1875 23.5547 14.2305V13.1934C23.5547 11.2363 23.8242 9.47852 24.3633 7.91992C24.9141 6.36133 25.6816 5.03711 26.666 3.94727C27.6621 2.8457 28.8398 2.00781 30.1992 1.43359C31.5703 0.847656 33.082 0.554688 34.7344 0.554688C36.375 0.554688 37.875 0.847656 39.2344 1.43359C40.6055 2.00781 41.7891 2.8457 42.7852 3.94727C43.7812 5.03711 44.5547 6.36133 45.1055 7.91992C45.6562 9.47852 45.9316 11.2363 45.9316 13.1934ZM39.6738 14.2305V13.1582C39.6738 11.8926 39.5625 10.7793 39.3398 9.81836C39.1289 8.8457 38.8125 8.03125 38.3906 7.375C37.9688 6.71875 37.4473 6.22656 36.8262 5.89844C36.2168 5.55859 35.5195 5.38867 34.7344 5.38867C33.9141 5.38867 33.1992 5.55859 32.5898 5.89844C31.9805 6.22656 31.4707 6.71875 31.0605 7.375C30.6504 8.03125 30.3398 8.8457 30.1289 9.81836C29.9297 10.7793 29.8301 11.8926 29.8301 13.1582V14.2305C29.8301 15.4844 29.9297 16.5977 30.1289 17.5703C30.3398 18.5312 30.6504 19.3457 31.0605 20.0137C31.4824 20.6816 31.998 21.1855 32.6074 21.5254C33.2285 21.8652 33.9492 22.0352 34.7695 22.0352C35.5547 22.0352 36.252 21.8652 36.8613 21.5254C37.4707 21.1855 37.9805 20.6816 38.3906 20.0137C38.8125 19.3457 39.1289 18.5312 39.3398 17.5703C39.5625 16.5977 39.6738 15.4844 39.6738 14.2305Z" fill="white"/>
</svg>
