<svg width="106" height="38" viewBox="0 0 106 38" fill="none" xmlns="http://www.w3.org/2000/svg">
<path d="M18.0674 1.45312V37H10.7676V1.45312H18.0674ZM29.0049 1.45312V7.19043H0.000976562V1.45312H29.0049ZM71.0459 1.45312H77.2471L86.3779 27.5518L95.5088 1.45312H101.71L88.8682 37H83.8877L71.0459 1.45312ZM67.7012 1.45312H73.8779L75.001 26.8926V37H67.7012V1.45312ZM98.8779 1.45312H105.079V37H97.7549V26.8926L98.8779 1.45312Z" fill="#828282"/>
<path d="M62.7939 18.5186V19.959C62.7939 22.6771 62.4115 25.1185 61.6465 27.2832C60.8978 29.4316 59.8317 31.2708 58.4482 32.8008C57.0648 34.3145 55.429 35.4782 53.541 36.292C51.653 37.0895 49.5697 37.4883 47.291 37.4883C44.9961 37.4883 42.8965 37.0895 40.9922 36.292C39.1042 35.4782 37.4603 34.3145 36.0605 32.8008C34.6771 31.2708 33.6029 29.4316 32.8379 27.2832C32.0892 25.1185 31.7148 22.6771 31.7148 19.959V18.5186C31.7148 15.8005 32.0892 13.359 32.8379 11.1943C33.6029 9.02962 34.6689 7.19043 36.0361 5.67676C37.4196 4.14681 39.0553 2.98307 40.9434 2.18555C42.8477 1.37174 44.9473 0.964844 47.2422 0.964844C49.5208 0.964844 51.6042 1.37174 53.4922 2.18555C55.3965 2.98307 57.0404 4.14681 58.4238 5.67676C59.8073 7.19043 60.8815 9.02962 61.6465 11.1943C62.4115 13.359 62.7939 15.8005 62.7939 18.5186ZM54.1025 19.959V18.4697C54.1025 16.7119 53.9479 15.1657 53.6387 13.8311C53.3457 12.4801 52.9062 11.349 52.3203 10.4375C51.7344 9.52604 51.0101 8.84245 50.1475 8.38672C49.3011 7.91471 48.3327 7.67871 47.2422 7.67871C46.1029 7.67871 45.11 7.91471 44.2637 8.38672C43.4173 8.84245 42.7093 9.52604 42.1396 10.4375C41.57 11.349 41.1387 12.4801 40.8457 13.8311C40.569 15.1657 40.4307 16.7119 40.4307 18.4697V19.959C40.4307 21.7005 40.569 23.2467 40.8457 24.5977C41.1387 25.9323 41.57 27.0635 42.1396 27.9912C42.7256 28.9189 43.4417 29.6188 44.2881 30.0908C45.1507 30.5628 46.1517 30.7988 47.291 30.7988C48.3815 30.7988 49.3499 30.5628 50.1963 30.0908C51.0426 29.6188 51.7507 28.9189 52.3203 27.9912C52.9062 27.0635 53.3457 25.9323 53.6387 24.5977C53.9479 23.2467 54.1025 21.7005 54.1025 19.959Z" fill="white"/>
</svg>
