<svg width="37" height="36" viewBox="0 0 37 36" fill="none" xmlns="http://www.w3.org/2000/svg">
<g clip-path="url(#clip0_2_17)">
<path d="M33.2036 8.25H13.7036C12.0536 8.25 10.7036 9.6 10.7036 11.25V24.75C10.7036 26.415 12.0536 27.75 13.7036 27.75H33.2036C34.8686 27.75 36.2036 26.415 36.2036 24.75V11.25C36.2036 9.6 34.8686 8.25 33.2036 8.25ZM33.2036 24.75H13.7036V13.755L23.4536 18.75L33.2036 13.755V24.75ZM23.4536 16.215L13.7036 11.25H33.2036L23.4536 16.215ZM7.70355 24.75C7.70355 25.005 7.74855 25.245 7.77855 25.5H1.70355C0.875552 25.5 0.203552 24.825 0.203552 24C0.203552 23.175 0.875552 22.5 1.70355 22.5H7.70355V24.75ZM4.70355 10.5H7.77855C7.74855 10.755 7.70355 10.995 7.70355 11.25V13.5H4.70355C3.87855 13.5 3.20355 12.825 3.20355 12C3.20355 11.175 3.87855 10.5 4.70355 10.5ZM1.70355 18C1.70355 17.175 2.37855 16.5 3.20355 16.5H7.70355V19.5H3.20355C2.37855 19.5 1.70355 18.825 1.70355 18Z" fill="white"/>
</g>
<defs>
<clipPath id="clip0_2_17">
<rect width="36" height="36" fill="white" transform="translate(0.203552)"/>
</clipPath>
</defs>
</svg>
