<svg width="32" height="42" viewBox="0 0 32 42" fill="none" xmlns="http://www.w3.org/2000/svg">
<path d="M1.84091 7.85797C1.84091 3.51813 5.25244 0 9.46081 0H22.5355C26.7439 0 30.1554 3.51813 30.1554 7.85797C30.1554 10.606 28.7876 13.0246 26.7157 14.4291C28.7876 15.8336 30.1554 18.2521 30.1554 21.0002C30.1554 25.34 26.7439 28.8582 22.5355 28.8582H22.3701C20.3972 28.8582 18.5994 28.085 17.2462 26.8163V34.0567C17.2462 38.4544 13.7454 42 9.50186 42C5.30401 42 1.84091 38.4926 1.84091 34.142C1.84091 31.3941 3.20866 28.9757 5.28039 27.5711C3.20866 26.1666 1.84091 23.748 1.84091 21.0002C1.84091 18.2521 3.20878 15.8336 5.28066 14.4291C3.20878 13.0246 1.84091 10.606 1.84091 7.85797ZM14.7502 15.7161H9.46081C6.63092 15.7161 4.33687 18.0819 4.33687 21.0002C4.33687 23.9072 6.61323 26.2659 9.42804 26.2841C9.43893 26.284 9.44983 26.284 9.46081 26.284H14.7502V15.7161ZM17.2462 21.0002C17.2462 23.9184 19.5402 26.2842 22.3701 26.2842H22.5355C25.3654 26.2842 27.6595 23.9184 27.6595 21.0002C27.6595 18.0819 25.3654 15.7161 22.5355 15.7161H22.3701C19.5402 15.7161 17.2462 18.0819 17.2462 21.0002ZM9.46081 28.8582C9.44983 28.8582 9.43893 28.8581 9.42804 28.8581C6.61323 28.8762 4.33687 31.235 4.33687 34.142C4.33687 37.0496 6.66157 39.426 9.50186 39.426C12.3879 39.426 14.7502 37.0114 14.7502 34.0567V28.8582H9.46081ZM9.46081 2.57396C6.63092 2.57396 4.33687 4.9397 4.33687 7.85797C4.33687 10.7763 6.63092 13.142 9.46081 13.142H14.7502V2.57396H9.46081ZM17.2462 13.142H22.5355C25.3654 13.142 27.6595 10.7763 27.6595 7.85797C27.6595 4.9397 25.3654 2.57396 22.5355 2.57396H17.2462V13.142Z" fill="#F7C30A"/>
</svg>
