<svg width="34" height="34" viewBox="0 0 34 34" fill="none" xmlns="http://www.w3.org/2000/svg">
<path d="M17 2.83331C15.1396 2.83331 13.2974 3.19974 11.5786 3.91169C9.85987 4.62363 8.29815 5.66714 6.98265 6.98263C4.32588 9.6394 2.83333 13.2427 2.83333 17C2.83333 23.2616 6.89916 28.5741 12.5233 30.4583C13.2317 30.5716 13.4583 30.1325 13.4583 29.75C13.4583 29.4241 13.4583 28.5316 13.4583 27.3558C9.53416 28.2058 8.69833 25.4575 8.69833 25.4575C8.04666 23.8141 7.12583 23.375 7.12583 23.375C5.83666 22.4966 7.225 22.525 7.225 22.525C8.64166 22.6241 9.3925 23.9841 9.3925 23.9841C10.625 26.1375 12.7075 25.5 13.515 25.16C13.6425 24.2391 14.0108 23.6158 14.4075 23.2616C11.2625 22.9075 7.96166 21.6891 7.96166 16.2916C7.96166 14.7191 8.5 13.4583 9.42083 12.4525C9.27916 12.0983 8.78333 10.625 9.5625 8.71248C9.5625 8.71248 10.7525 8.32998 13.4583 10.1575C14.5775 9.84581 15.7958 9.68998 17 9.68998C18.2042 9.68998 19.4225 9.84581 20.5417 10.1575C23.2475 8.32998 24.4375 8.71248 24.4375 8.71248C25.2167 10.625 24.7208 12.0983 24.5792 12.4525C25.5 13.4583 26.0383 14.7191 26.0383 16.2916C26.0383 21.7033 22.7233 22.8933 19.5642 23.2475C20.0742 23.6866 20.5417 24.5508 20.5417 25.8683C20.5417 27.7666 20.5417 29.2966 20.5417 29.75C20.5417 30.1325 20.7683 30.5858 21.4908 30.4583C27.115 28.56 31.1667 23.2616 31.1667 17C31.1667 15.1396 30.8002 13.2974 30.0883 11.5786C29.3764 9.85985 28.3328 8.29813 27.0173 6.98263C25.7018 5.66714 24.1401 4.62363 22.4213 3.91169C20.7026 3.19974 18.8604 2.83331 17 2.83331Z" fill="white"/>
</svg>
