<svg width="37" height="34" viewBox="0 0 37 34" fill="none" xmlns="http://www.w3.org/2000/svg">
<path d="M0.598679 13.4563L0.648881 13.3322L5.64753 0.796317C5.74793 0.550124 5.92722 0.341859 6.16389 0.200488C6.33601 0.0935973 6.52964 0.0270493 6.73762 0.00670555C6.9456 -0.0136382 7.1464 0.0124294 7.34004 0.0832531C7.53367 0.153594 7.70579 0.266691 7.84923 0.41289C7.98549 0.559089 8.08589 0.734941 8.14326 0.925965L11.5139 10.8565H25.1759L28.5538 0.925965C28.6112 0.734941 28.7116 0.559778 28.8478 0.41358C28.9913 0.267381 29.1634 0.154973 29.357 0.0846323C29.5464 0.0139465 29.7529 -0.0122589 29.958 0.00787791C30.1631 0.0279458 30.3603 0.0935973 30.5346 0.200488C30.767 0.341859 30.947 0.550124 31.0481 0.796317L36.0434 13.3322L36.0953 13.4563C36.8144 15.2631 36.903 17.2492 36.3477 19.1112C35.7922 20.9662 34.6232 22.6075 33.0167 23.773L32.9974 23.7868L32.955 23.8144L25.3552 29.2968L21.5829 32.0346L19.288 33.7035C19.0227 33.8345 18.6928 34 18.3557 34C18.0186 34 17.6887 33.8345 17.4234 33.7035L15.1285 32.0346L11.3562 29.2968L3.70401 23.7868L3.68249 23.7661C2.07604 22.6006 0.90706 20.9662 0.412215 19.1112C-0.204547 17.2492 -0.118487 15.2631 0.598679 13.4563Z" fill="white"/>
</svg>
