<svg width="139" height="128" viewBox="0 0 139 128" fill="none" xmlns="http://www.w3.org/2000/svg">
<g clip-path="url(#clip0_4411_2554)">
<path d="M69.5407 128.023L95.1167 49.4062H43.9642L69.5407 128.023Z" fill="#E24329"/>
<path d="M69.5407 128.023L43.9642 49.4056H8.12064L69.5407 128.023Z" fill="#FC6D26"/>
<path d="M8.12065 49.4056L0.348598 73.2972C0.0030285 74.3593 0.00298084 75.5034 0.348462 76.5656C0.693943 77.6277 1.36722 78.5534 2.27179 79.2099L69.5407 128.023L8.12011 49.4062L8.12065 49.4056Z" fill="#FCA326"/>
<path d="M8.12064 49.4062H43.9642L28.5607 2.05536C27.768 -0.381192 24.3169 -0.38065 23.5247 2.05536L8.12064 49.4062Z" fill="#E24329"/>
<path d="M69.5407 128.023L95.1167 49.4056H130.961L69.5407 128.023Z" fill="#FC6D26"/>
<path d="M130.961 49.4056L138.733 73.2972C139.078 74.3594 139.078 75.5035 138.733 76.5657C138.387 77.6278 137.714 78.5534 136.809 79.2099L69.5407 128.023L130.961 49.4062V49.4056Z" fill="#FCA326"/>
<path d="M130.961 49.4062H95.1167L110.521 2.05536C111.313 -0.381192 114.765 -0.38065 115.557 2.05536L130.961 49.4062Z" fill="#E24329"/>
</g>
<defs>
<clipPath id="clip0_4411_2554">
<rect width="139" height="128" fill="white"/>
</clipPath>
</defs>
</svg>
